<svg xmlns="http://www.w3.org/2000/svg" width="1080" height="1920" viewBox="0 0 1080 1920">
<defs><linearGradient id="sky" x1="0" y1="0" x2="0" y2="1"><stop stop-color="#19314b"/><stop offset=".55" stop-color="#4c7186"/><stop offset="1" stop-color="#d9905b"/></linearGradient><linearGradient id="sea" x1="0" y1="0" x2="0" y2="1"><stop stop-color="#1b5269"/><stop offset="1" stop-color="#0b2739"/></linearGradient><filter id="shadow"><feDropShadow dx="0" dy="10" stdDeviation="10" flood-opacity=".45"/></filter></defs>
<rect width="1080" height="1920" fill="#07131c"/>
<!-- cinematic harbor environment -->
<rect width="1080" height="1120" fill="url(#sky)"/>
<path d="M0 690 C180 620 330 710 500 650 C670 590 820 650 1080 560 L1080 1120 L0 1120Z" fill="url(#sea)"/>
<path d="M0 760 C150 735 250 790 390 760 C560 725 660 810 840 765 C920 745 1000 730 1080 750" fill="none" stroke="#a8d7df" stroke-width="12" opacity=".65"/>
<path d="M0 860 C150 830 285 900 430 865 C590 825 780 910 1080 845" fill="none" stroke="#8fcbd6" stroke-width="8" opacity=".45"/>
<!-- city skyline -->
<g fill="#1d2931"><rect x="40" y="470" width="100" height="210"/><rect x="160" y="420" width="84" height="260"/><rect x="265" y="505" width="130" height="175"/><rect x="420" y="450" width="92" height="230"/><rect x="535" y="390" width="118" height="290"/><rect x="680" y="480" width="88" height="200"/><rect x="790" y="430" width="120" height="250"/><rect x="930" y="510" width="110" height="170"/></g>
<g fill="#f4d687" opacity=".65"><rect x="68" y="510" width="18" height="28"/><rect x="190" y="470" width="18" height="28"/><rect x="570" y="435" width="18" height="28"/><rect x="830" y="475" width="18" height="28"/><rect x="960" y="545" width="18" height="28"/></g>
<!-- warning news billboard -->
<g filter="url(#shadow)"><rect x="58" y="90" rx="22" width="660" height="250" fill="#101820" stroke="#dce6ea" stroke-width="6"/><rect x="80" y="112" width="240" height="206" fill="#8f3229"/><path d="M104 282 C148 224 194 194 230 156 C258 128 294 132 304 118" fill="none" stroke="#ffd45a" stroke-width="20"/><text x="350" y="162" font-family="Arial,sans-serif" font-size="43" font-weight="800" fill="#fff">GLOBAL HEAT ALERT</text><text x="350" y="218" font-family="Arial,sans-serif" font-size="31" fill="#ffd45a">OCEAN TEMPERATURE RISING</text><text x="350" y="270" font-family="Arial,sans-serif" font-size="28" fill="#d7e7ee">해수 온도 급상승 · 海温持续上升</text></g>
<!-- foreground characters -->
<g transform="translate(120 895)"><ellipse cx="180" cy="570" rx="205" ry="55" fill="#000" opacity=".28"/><path d="M110 225 Q180 160 250 225 L292 520 Q180 565 72 520Z" fill="#243442"/><circle cx="180" cy="150" r="82" fill="#e9c6a6"/><path d="M100 145 Q120 52 192 58 Q264 62 270 160 Q224 126 165 128 Q132 130 100 145" fill="#20232a"/><path d="M75 505 L125 775 L182 775 L175 520Z" fill="#17212b"/><path d="M290 505 L240 775 L183 775 L188 520Z" fill="#17212b"/><path d="M242 300 Q340 340 404 270" fill="none" stroke="#e9c6a6" stroke-width="34" stroke-linecap="round"/><rect x="386" y="210" width="190" height="125" rx="18" fill="#111" stroke="#9fd7ff" stroke-width="7"/><path d="M408 300 L446 268 L484 281 L532 230" fill="none" stroke="#ff6464" stroke-width="9"/></g>
<g transform="translate(610 985)"><ellipse cx="160" cy="480" rx="190" ry="50" fill="#000" opacity=".28"/><path d="M92 205 Q160 145 228 205 L265 438 Q160 480 55 438Z" fill="#6d3f37"/><circle cx="160" cy="132" r="74" fill="#efc8a9"/><path d="M88 130 Q100 45 168 48 Q234 48 240 143 Q204 108 160 110 Q116 112 88 130" fill="#3b261f"/><path d="M62 430 L104 690 L158 690 L156 448Z" fill="#1e252b"/><path d="M258 430 L218 690 L164 690 L166 448Z" fill="#1e252b"/></g>
<!-- speech bubbles -->
<g filter="url(#shadow)"><path d="M525 650 Q540 575 622 575 H940 Q1020 575 1020 655 V825 Q1020 900 940 900 H660 L575 955 L600 900 Q525 895 525 820Z" fill="#fff" stroke="#111" stroke-width="8"/><text x="580" y="665" font-family="Arial,'Malgun Gothic',sans-serif" font-size="38" font-weight="800" fill="#111">바다가 너무 뜨거워졌어.</text><text x="580" y="722" font-family="Arial,sans-serif" font-size="34" fill="#333">海水已经变得太热了。</text><text x="580" y="779" font-family="Arial,sans-serif" font-size="31" fill="#555">The ocean is getting too warm.</text></g>
<g filter="url(#shadow)"><path d="M70 1220 Q70 1150 150 1150 H720 Q800 1150 800 1225 V1360 Q800 1435 720 1435 H220 L155 1490 L170 1435 H150 Q70 1435 70 1360Z" fill="#fff" stroke="#111" stroke-width="8"/><text x="125" y="1245" font-family="Arial,'Malgun Gothic',sans-serif" font-size="38" font-weight="800" fill="#111">이 변화가 폭풍을 더 키우는 거야.</text><text x="125" y="1305" font-family="Arial,sans-serif" font-size="34" fill="#333">这种变化会让风暴变得更强。</text><text x="125" y="1365" font-family="Arial,sans-serif" font-size="31" fill="#555">This change is feeding stronger storms.</text></g>
<!-- caption -->
<g filter="url(#shadow)"><rect x="58" y="1540" width="964" height="260" rx="18" fill="#101318" stroke="#ffd65c" stroke-width="7"/><text x="95" y="1610" font-family="Arial,'Malgun Gothic',sans-serif" font-size="30" font-weight="800" fill="#ffd65c">SITUATION / 상황 설명 / 情况说明</text><text x="95" y="1670" font-family="Arial,'Malgun Gothic',sans-serif" font-size="34" font-weight="700" fill="#fff">뜨거워진 바다가 더 많은 에너지를 품기 시작한다.</text><text x="95" y="1728" font-family="Arial,sans-serif" font-size="31" fill="#d8e4e9">变暖的海洋正在积蓄更多能量。</text><text x="95" y="1783" font-family="Arial,sans-serif" font-size="29" fill="#b9c9d0">A warming ocean stores more energy for the storms ahead.</text></g>
<!-- visual SFX -->
<text x="760" y="420" font-family="Impact,Arial Black,sans-serif" font-size="92" font-style="italic" fill="#ffd65c" stroke="#111" stroke-width="10" transform="rotate(-8 760 420)">WHOOSH…</text>
<text x="42" y="1870" font-family="Arial,sans-serif" font-size="25" fill="#96a9b5">FTF-01 · EARTH'S WARNING · SCENE 05 / 26</text>
</svg>