<svg xmlns="http://www.w3.org/2000/svg" width="1536" height="1024" viewBox="0 0 1536 1024">
<defs>
 <linearGradient id="sky107" x1="0" y1="0" x2="0" y2="1"><stop stop-color="#2b9ee7"/><stop offset=".55" stop-color="#c8f4ff"/><stop offset="1" stop-color="#ffe0a2"/></linearGradient>
 <linearGradient id="water107" x1="0" y1="0" x2="0" y2="1"><stop stop-color="#2bd5ec"/><stop offset=".5" stop-color="#087db5"/><stop offset="1" stop-color="#023553"/></linearGradient>
 <linearGradient id="deep107" x1="0" y1="0" x2="1" y2="1"><stop stop-color="#0b8fbd"/><stop offset=".5" stop-color="#07577d"/><stop offset="1" stop-color="#012a47"/></linearGradient>
 <linearGradient id="gold107" x1="0" y1="0" x2="1" y2="1"><stop stop-color="#ffd864"/><stop offset="1" stop-color="#ff8e42"/></linearGradient>
 <filter id="shadow107"><feDropShadow dx="0" dy="6" stdDeviation="5" flood-opacity=".4"/></filter>
 <pattern id="bubble107" width="84" height="84" patternUnits="userSpaceOnUse"><circle cx="13" cy="18" r="4" fill="#eaffff" opacity=".5"/><circle cx="58" cy="51" r="7" fill="none" stroke="#d9fbff" stroke-width="2" opacity=".38"/></pattern>
 <clipPath id="a107"><rect x="18" y="82" width="742" height="432" rx="8"/></clipPath><clipPath id="b107"><rect x="776" y="82" width="742" height="432" rx="8"/></clipPath><clipPath id="c107"><rect x="18" y="530" width="742" height="476" rx="8"/></clipPath><clipPath id="d107"><rect x="776" y="530" width="742" height="476" rx="8"/></clipPath>
</defs>
<rect width="1536" height="1024" fill="#061521"/><rect x="14" y="12" width="1508" height="57" rx="12" fill="#07131f"/>
<text x="34" y="51" fill="#fff" font-family="Arial,Malgun Gothic,sans-serif" font-size="34" font-weight="900">FTF-01  #107  산호의 내일을 심다</text>
<text x="790" y="49" fill="#9deeff" font-family="Arial,Microsoft YaHei,sans-serif" font-size="20" font-weight="800">PLANTING TOMORROW'S REEF · 为珊瑚种下明天</text>

<!-- PANEL 1: survey launch -->
<g clip-path="url(#a107)"><rect x="18" y="82" width="742" height="432" fill="url(#sky107)"/><circle cx="678" cy="143" r="58" fill="#fff1aa" opacity=".9"/><path d="M18 292 Q175 247 327 282 T760 271 V514 H18Z" fill="url(#water107)"/><path d="M484 242 q55-88 118-70 q-18 18-31 43 q41-22 89-2 q-52 10-78 55Z" fill="#3c817a" opacity=".72"/>
 <g filter="url(#shadow107)"><path d="M79 369 L477 369 L439 448 L132 448Z" fill="#f7fbff" stroke="#16374a" stroke-width="6"/><rect x="177" y="268" width="226" height="104" rx="8" fill="#edf7fa" stroke="#16374a" stroke-width="6"/><rect x="215" y="289" width="65" height="39" fill="#225e7e"/><rect x="300" y="289" width="65" height="39" fill="#225e7e"/><path d="M291 268 V205 M291 205 L334 236 M291 205 L258 237" stroke="#16374a" stroke-width="7"/><text x="291" y="357" text-anchor="middle" fill="#0c4d79" font-size="33" font-family="Arial" font-weight="900">FTF</text></g>
 <g filter="url(#shadow107)"><ellipse cx="553" cy="292" rx="45" ry="52" fill="#efc19f" stroke="#17212a" stroke-width="5"/><path d="M512 291 Q517 239 554 238 Q590 240 596 293 Q577 265 554 264 Q529 264 512 291Z" fill="#392821"/><path d="M514 340 Q551 327 594 344 L626 497 L482 497Z" fill="#094b77" stroke="#17212a" stroke-width="5"/><text x="554" y="407" fill="#fff" text-anchor="middle" font-size="27" font-family="Arial" font-weight="900">FTF</text><circle cx="537" cy="298" r="5"/><circle cx="568" cy="298" r="5"/><path d="M540 319 Q554 331 570 318" fill="none" stroke="#a45b4f" stroke-width="4"/><path d="M588 363 Q642 329 692 311" fill="none" stroke="#efc19f" stroke-width="20" stroke-linecap="round"/><circle cx="694" cy="311" r="13" fill="#efc19f"/></g>
 <rect x="36" y="101" width="335" height="126" rx="24" fill="#fff" stroke="#111" stroke-width="4"/><text x="204" y="132" text-anchor="middle" font-family="Arial,Malgun Gothic" font-size="19" font-weight="900"><tspan x="204">다음 임무는 산호 유치원이야!</tspan><tspan x="204" dy="25">회복한 조각들을 새 터전에 옮기자.</tspan><tspan x="204" dy="24" font-size="16">下一个任务是珊瑚育苗区，移植健康珊瑚。</tspan><tspan x="204" dy="22" font-size="15">Next mission: move healthy coral to the nursery reef.</tspan></text>
 <rect x="432" y="103" width="297" height="111" rx="22" fill="#fff7d8" stroke="#111" stroke-width="4"/><text x="581" y="136" text-anchor="middle" font-family="Arial,Malgun Gothic" font-size="18" font-weight="900"><tspan x="581">수온·탁도 모두 안정적이야.</tspan><tspan x="581" dy="24" font-size="15">水温和浑浊度都稳定。</tspan><tspan x="581" dy="21" font-size="14">Temperature and turbidity are stable.</tspan></text>
 <text x="42" y="489" fill="#fff" stroke="#07557f" stroke-width="8" paint-order="stroke" font-size="43" font-family="Arial" font-style="italic" font-weight="1000">GO! REEF NURSERY!</text></g>

<!-- PANEL 2: underwater transplant -->
<g clip-path="url(#b107)"><rect x="776" y="82" width="742" height="432" fill="url(#deep107)"/><rect x="776" y="82" width="742" height="432" fill="url(#bubble107)"/><path d="M776 450 Q892 402 1014 450 T1268 442 T1518 455 V514 H776Z" fill="#75513c"/>
 <g fill="none" stroke-linecap="round"><path d="M824 476 q8-80 31-120 m-4 44 q-29-21-46-49 m49 47 q37-28 48-66" stroke="#ff8565" stroke-width="17"/><path d="M1416 476 q-8-79-34-120 m10 44 q31-24 48-53" stroke="#d977f4" stroke-width="17"/><path d="M1280 480 q4-61 24-100 m-4 29 q25-17 38-44" stroke="#ffc84e" stroke-width="14"/></g>
 <!-- coral nursery frame --> <g filter="url(#shadow107)"><path d="M1132 317 L1439 317 L1402 432 L1092 432Z" fill="none" stroke="#dceef3" stroke-width="8"/><path d="M1150 337 L1121 417 M1212 337 L1180 421 M1275 337 L1248 423 M1337 337 L1310 424 M1400 337 L1370 421" stroke="#dceef3" stroke-width="5"/><g stroke-linecap="round"><path d="M1162 376 q3-40 14-59 m-4 22 q-15-12-24-29 m26 28 q17-15 23-35" stroke="#ff876e" stroke-width="13"/><path d="M1238 389 q2-42 15-64 m-4 23 q-18-13-27-32 m30 30 q18-18 24-37" stroke="#f8c752" stroke-width="13"/><path d="M1319 385 q-1-44 10-67 m-2 24 q20-16 31-36" stroke="#ce7df4" stroke-width="13"/></g></g>
 <!-- diver --> <g filter="url(#shadow107)"><ellipse cx="1003" cy="250" rx="44" ry="51" fill="#d6a081" stroke="#0d1e28" stroke-width="5"/><path d="M964 240 Q970 205 1004 203 Q1037 207 1044 242" fill="#131e28"/><rect x="968" y="235" width="72" height="38" rx="11" fill="#18364b" stroke="#71def0" stroke-width="5"/><circle cx="990" cy="253" r="9" fill="#a6f3ff" opacity=".7"/><circle cx="1019" cy="253" r="9" fill="#a6f3ff" opacity=".7"/><path d="M970 302 Q1005 288 1045 306 L1080 449 L936 449Z" fill="#073f68" stroke="#0d1e28" stroke-width="5"/><text x="1008" y="368" fill="#fff" text-anchor="middle" font-size="27" font-family="Arial" font-weight="900">FTF</text><path d="M1049 334 Q1092 349 1130 366" stroke="#d6a081" stroke-width="20" stroke-linecap="round"/><circle cx="1135" cy="368" r="13" fill="#d6a081"/></g>
 <rect x="795" y="101" width="323" height="122" rx="24" fill="#fff" stroke="#111" stroke-width="4"/><text x="956" y="131" text-anchor="middle" font-family="Arial,Malgun Gothic" font-size="19" font-weight="900"><tspan x="956">살아남은 산호 조각을 고정한다.</tspan><tspan x="956" dy="25">뿌리가 붙을 공간은 충분히 띄워!</tspan><tspan x="956" dy="24" font-size="16">固定健康珊瑚枝，留出足够生长空间。</tspan><tspan x="956" dy="21" font-size="15">Secure each fragment and leave room to grow.</tspan></text>
 <rect x="1261" y="105" width="231" height="112" rx="22" fill="#fff7d8" stroke="#111" stroke-width="4"/><text x="1376" y="137" text-anchor="middle" font-family="Arial,Malgun Gothic" font-size="18" font-weight="900"><tspan x="1376">좋아, 하나 더!</tspan><tspan x="1376" dy="24" font-size="15">很好，再来一株！</tspan><tspan x="1376" dy="21" font-size="14">Good—one more!</tspan></text>
 <text x="1114" y="477" fill="#ffd54a" stroke="#09253c" stroke-width="9" paint-order="stroke" font-size="55" font-family="Arial" font-weight="1000" font-style="italic" transform="rotate(-7 1114 477)">CLICK!</text></g>

<!-- PANEL 3: life returns -->
<g clip-path="url(#c107)"><rect x="18" y="530" width="742" height="476" fill="url(#water107)"/><path d="M18 883 Q150 821 287 879 T548 858 T760 884 V1006 H18Z" fill="#7a543d"/>
 <g fill="none" stroke-linecap="round"><path d="M88 918 q7-77 29-130 m-5 45 q-28-23-45-58 m49 48 q33-31 41-70" stroke="#ff8d6d" stroke-width="19"/><path d="M590 909 q-5-70-29-124 m8 41 q35-30 49-67" stroke="#d97cf7" stroke-width="17"/><path d="M684 927 q-7-58 2-105 m-1 29 q25-17 39-46" stroke="#ffd15b" stroke-width="14"/></g>
 <!-- fish schools --> <g fill="#ffd74d" stroke="#1f4f65" stroke-width="3"><path d="M169 720 q44-28 83 0 q-38 30-83 0 l-24 18 7-19-7-20Z"/><path d="M500 650 q39-24 72 1 q-33 27-72 0 l-22 16 7-17-8-18Z"/></g><g fill="#67d8ff" stroke="#1f4f65" stroke-width="3"><path d="M315 792 q39-25 74 0 q-35 28-74 0 l-22 16 7-17-7-18Z"/><path d="M598 769 q34-22 65 0 q-30 24-65 0 l-19 14 6-15-6-15Z"/></g>
 <!-- turtle --> <g filter="url(#shadow107)"><ellipse cx="415" cy="740" rx="118" ry="63" fill="#9d7b43" stroke="#254755" stroke-width="6"/><path d="M315 735 Q410 655 512 736 Q411 799 315 735Z" fill="#b99a59" stroke="#254755" stroke-width="5"/><path d="M507 726 q81-46 107-1 q-47 41-110 24" fill="#82a26c" stroke="#254755" stroke-width="5"/><circle cx="579" cy="722" r="5"/><path d="M345 783 q-38 48-80 39 q24-44 61-62 M483 784 q36 48 77 39 q-18-42-59-64" fill="#82a26c" stroke="#254755" stroke-width="5"/></g>
 <rect x="37" y="547" width="324" height="116" rx="22" fill="#fff" stroke="#111" stroke-width="4"/><text x="199" y="579" text-anchor="middle" font-family="Arial,Malgun Gothic" font-size="19" font-weight="900"><tspan x="199">새 산호 주변으로 물고기가 모여!</tspan><tspan x="199" dy="25">거북이도 다시 이 길을 쓰고 있어.</tspan><tspan x="199" dy="24" font-size="16">鱼群回来了，海龟也重新经过这里。</tspan><tspan x="199" dy="21" font-size="15">Fish are gathering—and turtles are returning.</tspan></text>
 <rect x="388" y="863" width="345" height="111" rx="18" fill="#fff" stroke="#111" stroke-width="4"/><text x="560" y="894" text-anchor="middle" font-family="Arial,Malgun Gothic" font-size="18" font-weight="900"><tspan x="560">작은 산호 한 조각이 서식지를 다시 연결한다.</tspan><tspan x="560" dy="24" font-size="15">一株小珊瑚，重新连接整个栖息地。</tspan><tspan x="560" dy="21" font-size="14">One coral fragment reconnects an entire habitat.</tspan></text>
 <text x="43" y="964" fill="#fff" stroke="#07527f" stroke-width="8" paint-order="stroke" font-size="53" font-family="Arial" font-weight="1000" font-style="italic">LIFE CONNECTS!</text></g>

<!-- PANEL 4: data verification -->
<g clip-path="url(#d107)"><rect x="776" y="530" width="742" height="476" fill="url(#sky107)"/><path d="M776 829 Q940 783 1096 822 T1518 814 V1006 H776Z" fill="#1a789e" opacity=".75"/>
 <!-- monitor --> <g filter="url(#shadow107)"><rect x="825" y="590" width="391" height="267" rx="16" fill="#102c3d" stroke="#dbeef5" stroke-width="7"/><rect x="846" y="618" width="350" height="210" rx="8" fill="#083653"/><text x="870" y="651" fill="#8feaff" font-family="Arial" font-size="25" font-weight="900">FTF REEF MAP</text><path d="M875 755 C919 690 961 731 1002 679 C1036 635 1081 727 1138 665" fill="none" stroke="#63f0aa" stroke-width="8"/><circle cx="1002" cy="679" r="12" fill="#ffd15a"/><circle cx="1138" cy="665" r="12" fill="#63f0aa"/><rect x="862" y="777" width="314" height="38" rx="9" fill="#0d4c67"/><text x="1019" y="804" fill="#fff" text-anchor="middle" font-size="23" font-family="Arial" font-weight="900">REEF SURVIVAL  +18%</text></g>
 <!-- crew --> <g filter="url(#shadow107)"><ellipse cx="1286" cy="703" rx="43" ry="49" fill="#efc19f" stroke="#17212a" stroke-width="5"/><path d="M1248 697 Q1254 649 1288 649 Q1321 652 1328 700" fill="#33251f"/><path d="M1247 751 Q1283 736 1326 753 L1358 958 L1215 958Z" fill="#094b77" stroke="#17212a" stroke-width="5"/><text x="1288" y="824" fill="#fff" text-anchor="middle" font-size="26" font-family="Arial" font-weight="900">FTF</text><circle cx="1271" cy="707" r="5"/><circle cx="1300" cy="707" r="5"/><path d="M1273 727 Q1287 738 1302 726" fill="none" stroke="#a55b4f" stroke-width="4"/><path d="M1243 789 Q1189 772 1141 744" stroke="#efc19f" stroke-width="19" stroke-linecap="round"/></g>
 <g filter="url(#shadow107)"><ellipse cx="1431" cy="721" rx="39" ry="45" fill="#d5a082" stroke="#17212a" stroke-width="5"/><path d="M1397 711 Q1404 672 1432 671 Q1460 674 1467 714" fill="#171f27"/><path d="M1399 761 Q1431 748 1465 764 L1494 950 L1372 950Z" fill="#073f68" stroke="#17212a" stroke-width="5"/><text x="1433" y="826" fill="#fff" text-anchor="middle" font-size="24" font-family="Arial" font-weight="900">FTF</text></g>
 <rect x="803" y="548" width="398" height="98" rx="20" fill="#fff" stroke="#111" stroke-width="4"/><text x="1002" y="579" text-anchor="middle" font-family="Arial,Malgun Gothic" font-size="18" font-weight="900"><tspan x="1002">이식 구역의 산호 생존율이 18% 올랐어!</tspan><tspan x="1002" dy="24" font-size="15">移植区珊瑚存活率提高了18%。</tspan><tspan x="1002" dy="21" font-size="14">Coral survival in the nursery zone is up 18%.</tspan></text>
 <rect x="1217" y="554" width="280" height="112" rx="22" fill="#fff7d8" stroke="#111" stroke-width="4"/><text x="1357" y="585" text-anchor="middle" font-family="Arial,Malgun Gothic" font-size="18" font-weight="900"><tspan x="1357">구조 다음은 회복이야.</tspan><tspan x="1357" dy="24">계속 관찰하자!</tspan><tspan x="1357" dy="23" font-size="15">救援之后，是持续恢复与监测。</tspan><tspan x="1357" dy="20" font-size="14">Rescue, restore, then keep watching.</tspan></text>
 <rect x="910" y="881" width="500" height="93" rx="18" fill="#071b29" opacity=".93"/><text x="1160" y="920" text-anchor="middle" fill="#fff" font-family="Arial" font-size="39" font-weight="1000" font-style="italic">RESCUE · RESTORE · MONITOR</text><text x="1160" y="951" text-anchor="middle" fill="#8feaff" font-family="Arial,Malgun Gothic" font-size="18" font-weight="800">바다의 회복은 데이터로 이어진다 · 海洋恢复由数据延续</text></g>

<rect x="18" y="82" width="742" height="432" fill="none" stroke="#fff" stroke-width="5"/><rect x="776" y="82" width="742" height="432" fill="none" stroke="#fff" stroke-width="5"/><rect x="18" y="530" width="742" height="476" fill="none" stroke="#fff" stroke-width="5"/><rect x="776" y="530" width="742" height="476" fill="none" stroke="#fff" stroke-width="5"/>
</svg>